HIERARCHY
ROOT Hips
{
	OFFSET	0.00	0.00	0.00
	CHANNELS 6 Xposition Yposition Zposition Zrotation Xrotation Yrotation
	JOINT LeftHip
	{
		OFFSET	 3.430000	 0.000000	 0.000000
		CHANNELS 3 Zrotation Xrotation Yrotation
		JOINT LeftKnee
		{
			OFFSET	 0.000000	-18.469999	 0.000000
			CHANNELS 3 Zrotation Xrotation Yrotation
			JOINT LeftAnkle
			{
				OFFSET	 0.000000	-17.950001	 0.000000
				CHANNELS 3 Zrotation Xrotation Yrotation
				End Site 
				{
					OFFSET	 0.000000	-3.119996	 0.000000
				}
			}
		}
	}
	JOINT RightHip
	{
		OFFSET	-3.430000	 0.000000	 0.000000
		CHANNELS 3 Zrotation Xrotation Yrotation
		JOINT RightKnee
		{
			OFFSET	 0.000000	-18.809999	 0.000000
			CHANNELS 3 Zrotation Xrotation Yrotation
			JOINT RightAnkle
			{
				OFFSET	 0.000000	-17.570000	 0.000000
				CHANNELS 3 Zrotation Xrotation Yrotation
				End Site 
				{
					OFFSET	 0.000000	-3.250000	 0.000000
				}
			}
		}
	}
	JOINT Chest
	{
		OFFSET	 0.000000	 4.570000	 0.000000
		CHANNELS 3 Zrotation Xrotation Yrotation
		JOINT LeftCollar
		{
			OFFSET	 1.060000	 15.330000	 1.760000
			CHANNELS 3 Zrotation Xrotation Yrotation
			JOINT LeftShoulder
			{
				OFFSET	 5.810000	 0.000000	 0.000000
				CHANNELS 3 Zrotation Xrotation Yrotation
				JOINT LeftElbow
				{
					OFFSET	 0.000000	-12.080000	 0.000000
					CHANNELS 3 Zrotation Xrotation Yrotation
					JOINT LeftWrist
					{
						OFFSET	 0.000000	-9.820000	 0.000000
						CHANNELS 3 Zrotation Xrotation Yrotation
						End Site 
						{
							OFFSET	 0.000000	-7.369996	 0.000000
						}
					}
				}
			}
		}
		JOINT RightCollar
		{
			OFFSET	-1.060000	 15.330000	 1.760000
			CHANNELS 3 Zrotation Xrotation Yrotation
			JOINT RightShoulder
			{
				OFFSET	-6.060000	 0.000000	 0.000000
				CHANNELS 3 Zrotation Xrotation Yrotation
				JOINT RightElbow
				{
					OFFSET	 0.000000	-11.900000	 0.000000
					CHANNELS 3 Zrotation Xrotation Yrotation
					JOINT RightWrist
					{
						OFFSET	 0.000000	-9.520000	 0.000000
						CHANNELS 3 Zrotation Xrotation Yrotation
						End Site 
						{
							OFFSET	 0.000000	-7.140012	 0.000000
						}
					}
				}
			}
		}
		JOINT Neck
		{
			OFFSET	 0.000000	 17.620001	 0.000000
			CHANNELS 3 Zrotation Xrotation Yrotation
			JOINT Head
			{
				OFFSET	 0.000000	 5.190000	 0.000000
				CHANNELS 3 Zrotation Xrotation Yrotation
				End Site 
				{
					OFFSET	 0.000000	 4.140008	 0.000000
				}
			}
		}
	}
}

MOTION
Frames: 9
Frame Time: 0.033333
-40.4912 1.9161 -49.4268 -1.24786 -0.166398 33.9071 15.803 -9.58571 18.3455 3.89104 13.4753 -1.92717 -20.0101 0.373061 -0.828517 -15.9068 0.97675 -26.3631 -2.85508 12.9319 5.18013 11.375 -8.49705 7.81359 5.66087 8.29096 1.21571 0 0 0 11.4572 4.04371 7.4696 -76.5832 -46.6216 -56.4604 37.1062 -13.7622 -7.84055 0 0 0 -12.9634 -12.9604 12.674 52.6107 -57.3622 40.3446 -47.1973 -16.5223 12.6133 0 0 0 -5.02827 5.36296 24.191 
-40.4894 1.9231 -49.4277 -1.24961 -0.149275 33.9294 15.7301 -9.66564 18.077 3.88155 13.4417 -1.92248 -19.9837 0.373282 -0.566312 -15.8902 0.949495 -26.0458 -2.82423 12.8695 5.17104 11.3369 -8.47767 7.45623 5.63453 8.18248 1.28327 0 0 0 11.3264 4.37669 7.74251 -76.7605 -46.6013 -56.5082 36.4609 -14.4097 -8.25719 0 0 0 -13.0377 -12.5683 12.2242 53.1606 -57.3348 40.7695 -46.72 -17.3183 12.7399 0 0 0 -4.97957 5.43038 24.1267 
-40.4912 1.9249 -49.4283 -1.25524 -0.11806 33.9425 15.6584 -9.73399 17.9133 3.90062 13.419 -1.94965 -19.9753 0.355492 -0.375907 -15.8864 0.907252 -25.8492 -2.79747 12.8453 5.16243 11.303 -8.48314 7.24427 5.61116 8.07466 1.35696 0 0 0 11.158 4.60114 8.0474 -76.8258 -46.4894 -56.5634 35.9965 -14.8404 -8.57043 0 0 0 -13.0866 -12.3164 11.9498 53.4589 -57.3001 40.9836 -46.3996 -17.7589 12.7752 0 0 0 -4.93081 5.44687 24.0458 
-40.4924 1.9286 -49.4287 -1.263 -0.0886217 33.9565 15.591 -9.75769 17.7867 3.91591 13.3922 -1.93144 -19.9662 0.335696 -0.275705 -15.8905 0.874105 -25.7552 -2.78369 12.8447 5.17617 11.2796 -8.49643 7.11529 5.59402 8.00291 1.40882 0 0 0 11.0311 4.77407 8.2449 -76.8281 -46.4376 -56.5729 35.9273 -14.8357 -8.79831 0 0 0 -13.1375 -12.1594 11.8084 53.551 -57.1967 41.1122 -46.1697 -17.5356 12.6629 0 0 0 -4.89823 5.45095 23.9729 
-40.495 1.9362 -49.4312 -1.26079 -0.0360336 33.9948 15.4943 -9.8065 17.685 3.92579 13.3165 -1.99979 -19.9331 0.344199 -0.120102 -15.8734 0.869867 -25.5705 -2.77501 12.7681 5.15992 11.2508 -8.49185 6.88352 5.555 7.88184 1.49826 0 0 0 10.8307 5.06192 8.51164 -76.8019 -46.3069 -56.5293 35.6956 -14.9408 -9.07714 0 0 0 -13.2771 -11.8805 11.6409 53.7409 -57.0787 41.3006 -46.0289 -17.5481 12.5052 0 0 0 -4.84796 5.51705 23.8625 
-40.4975 1.9336 -49.4337 -1.25261 -0.00161678 34.0329 15.4458 -9.8203 17.7733 3.93335 13.2396 -2.07425 -19.9032 0.399099 -0.142203 -15.8527 0.928675 -25.5134 -2.77662 12.6433 5.20935 11.238 -8.49191 6.73224 5.52975 7.77032 1.59757 0 0 0 10.6296 5.32337 8.68816 -76.7551 -46.1741 -56.4858 35.6368 -14.815 -9.21673 0 0 0 -13.4251 -11.578 11.7047 53.7609 -57.1591 41.2541 -45.9729 -17.4185 12.4531 0 0 0 -4.79368 5.55486 23.723 
-40.5 1.9362 -49.4337 -1.25127 0.0528632 34.0692 15.4009 -9.84414 17.8551 3.93623 13.1819 -2.09359 -19.8813 0.447397 -0.215207 -15.8833 1.00048 -25.69 -2.78915 12.52 5.44403 11.2383 -8.49573 6.62492 5.51074 7.70442 1.70812 0 0 0 10.4419 5.55555 8.73294 -76.7137 -46.1171 -56.4084 35.5848 -14.7204 -9.31462 0 0 0 -13.5815 -11.2928 11.7099 53.8245 -57.1972 41.3085 -45.969 -17.1432 12.3899 0 0 0 -4.74471 5.67864 23.5513 
-40.5025 1.9362 -49.4362 -1.23131 0.0924446 34.1146 15.3764 -9.78582 18.1024 3.93767 13.1142 -2.09599 -19.8666 0.520082 -0.48262 -15.9031 1.10998 -25.9967 -2.80047 12.4179 5.54225 11.2367 -8.49353 6.78202 5.48503 7.70444 1.79985 0 0 0 10.3081 5.66547 8.6748 -76.5765 -46.0227 -56.3625 35.9758 -14.1086 -9.2094 0 0 0 -13.7414 -11.2365 11.9084 53.5565 -57.1851 41.0978 -46.291 -16.4478 12.2068 0 0 0 -4.67663 5.73262 23.3923 
-40.5076 1.9437 -49.4362 -1.21198 0.156642 34.1995 15.297 -9.81803 18.0593 3.93729 13.0471 -2.02438 -19.854 0.583472 -0.564829 -15.9305 1.07642 -25.9911 -2.79564 12.4586 5.4495 11.2136 -8.53391 6.7788 5.44242 7.60675 1.80933 0 0 0 10.2763 5.75167 8.4992 -76.4292 -45.9957 -56.2806 36.1193 -13.9532 -9.01337 0 0 0 -13.7749 -11.1753 12.1038 53.5417 -57.365 40.9913 -46.2762 -16.141 12.4434 0 0 0 -4.61 5.89272 23.2688 
